<?xml version="1.0" standalone="no"?>
<!DOCTYPE svg PUBLIC "-//W3C//DTD SVG 20010904//EN"
 "http://www.w3.org/TR/2001/REC-SVG-20010904/DTD/svg10.dtd">
<svg version="1.0" xmlns="http://www.w3.org/2000/svg"
 width="320.000000pt" height="277.000000pt" viewBox="0 0 320.000000 277.000000"
 preserveAspectRatio="xMidYMid meet">

<g transform="translate(0.000000,277.000000) scale(0.100000,-0.100000)"
fill="#000000" stroke="none">
<path d="M2846 2178 l-155 -163 -63 63 c-50 48 -70 62 -94 62 -62 0 -98 -55
-70 -108 8 -15 54 -69 103 -120 90 -95 115 -108 161 -83 24 13 364 376 380
406 26 51 -12 105 -74 105 -29 0 -50 -19 -188 -162z"/>
<path d="M1520 2209 c-175 -12 -432 -92 -467 -145 -12 -18 -14 -37 -9 -78 l7
-54 -58 -45 c-140 -109 -250 -250 -304 -391 -44 -115 -59 -192 -68 -348 -8
-135 -9 -138 -40 -173 -32 -36 -32 -37 -29 -133 l3 -97 548 -5 c302 -3 783 -3
1070 0 l522 5 3 97 3 97 -36 39 -35 39 0 106 c0 312 -135 590 -374 766 l-56
42 6 53 c4 34 2 61 -6 76 -27 50 -280 135 -436 145 -43 3 -92 7 -109 8 -16 2
-77 0 -135 -4z m310 -174 c110 -17 159 -30 184 -48 21 -15 24 4 -39 -267 -91
-392 -101 -471 -66 -490 31 -16 86 -12 103 8 26 31 32 51 120 427 12 50 23 92
25 94 7 9 125 -114 169 -175 98 -136 130 -248 140 -482 5 -123 9 -152 25 -174
l20 -28 -886 0 -886 0 20 28 c16 23 20 51 24 177 10 264 65 407 221 572 43 46
81 83 85 83 3 0 19 -55 35 -122 75 -325 88 -370 114 -400 17 -20 57 -23 98 -8
27 11 27 11 21 88 -5 66 -24 161 -67 337 -40 163 -70 310 -66 320 6 17 81 41
181 59 106 19 307 19 425 1z"/>
<path d="M220 487 c-33 -17 -53 -60 -45 -98 7 -32 48 -64 97 -74 28 -7 68 -47
68 -69 0 -21 -40 -56 -63 -56 -13 0 -39 8 -60 19 -30 15 -39 16 -47 5 -27 -31
95 -67 153 -45 33 13 59 66 50 102 -9 36 -31 57 -82 75 -79 30 -101 63 -64 99
13 14 28 16 69 12 62 -6 83 14 32 32 -41 14 -77 14 -108 -2z"/>
<path d="M2580 452 l0 -48 -39 4 c-75 7 -131 -49 -131 -133 0 -93 88 -151 147
-95 22 20 22 20 28 0 4 -11 13 -20 21 -20 12 0 14 29 14 170 0 163 -1 170 -20
170 -17 0 -20 -7 -20 -48z m-16 -78 c12 -4 16 -20 16 -54 0 -82 -27 -130 -74
-130 -57 0 -79 118 -31 165 23 24 57 31 89 19z"/>
<path d="M455 388 c-49 -42 -52 -155 -7 -201 11 -11 39 -21 64 -24 37 -4 49
-1 72 18 52 46 53 162 1 206 -35 31 -95 31 -130 1z m111 -29 c14 -15 19 -36
19 -76 0 -45 -4 -58 -24 -74 -29 -24 -53 -24 -82 0 -20 16 -24 29 -24 74 0 64
22 97 65 97 15 0 35 -9 46 -21z"/>
<path d="M660 397 c0 -8 18 -62 40 -121 44 -118 46 -132 26 -181 -13 -30 -13
-34 1 -39 9 -4 17 -5 18 -4 11 15 126 350 122 355 -17 16 -37 -15 -67 -101
-18 -53 -35 -95 -36 -93 -2 2 -19 46 -38 98 -21 60 -40 95 -50 97 -9 2 -16 -3
-16 -11z"/>
<path d="M1039 406 c-2 -2 -3 -81 -1 -175 2 -142 5 -171 17 -171 11 0 15 13
15 50 l0 50 48 0 c80 0 122 48 122 139 0 93 -77 143 -143 91 -25 -20 -25 -20
-30 0 -5 18 -18 26 -28 16z m147 -47 c13 -15 19 -36 19 -71 0 -42 -4 -53 -28
-74 -31 -27 -64 -31 -91 -11 -15 11 -17 22 -11 70 12 94 66 136 111 86z"/>
<path d="M1310 284 c0 -114 2 -125 18 -122 14 3 18 17 22 78 6 85 20 117 55
126 16 4 25 13 25 25 0 26 -23 24 -59 -7 l-31 -26 0 26 c0 16 -6 26 -15 26
-13 0 -15 -21 -15 -126z"/>
<path d="M1497 380 c-91 -108 3 -267 122 -206 34 18 51 54 51 112 0 51 -21 98
-49 114 -11 5 -38 10 -59 10 -32 0 -45 -6 -65 -30z m103 -10 c29 -16 45 -75
31 -121 -29 -96 -131 -68 -131 36 0 72 48 113 100 85z"/>
<path d="M1707 403 c-2 -5 15 -60 39 -123 36 -99 45 -115 64 -115 19 0 28 16
65 115 28 75 40 118 33 125 -14 15 -32 -15 -64 -106 -15 -43 -30 -79 -33 -79
-3 0 -19 37 -35 83 -16 45 -33 88 -39 95 -11 14 -24 16 -30 5z"/>
<path d="M1985 377 c-32 -32 -35 -40 -35 -95 0 -50 4 -66 26 -91 21 -26 33
-31 68 -31 46 0 88 23 80 44 -5 12 -10 12 -32 0 -50 -26 -87 -12 -105 39 -5
14 0 17 31 17 20 0 53 8 72 18 76 38 57 124 -29 130 -36 3 -46 -1 -76 -31z
m105 -12 c28 -34 -13 -75 -78 -75 -30 0 -33 2 -27 23 17 55 77 86 105 52z"/>
<path d="M2234 391 c-41 -25 -58 -69 -52 -133 6 -63 40 -98 93 -98 40 0 85 18
85 35 0 21 -12 25 -34 10 -11 -8 -30 -15 -41 -15 -29 0 -65 28 -65 49 0 14 10
20 46 24 60 6 98 35 102 75 6 64 -68 93 -134 53z m80 -17 c20 -8 21 -48 1 -64
-8 -6 -32 -14 -55 -17 -36 -5 -40 -4 -40 16 0 25 42 71 64 71 8 0 21 -3 30 -6z"/>
<path d="M2727 389 c-32 -24 -50 -86 -41 -136 16 -85 109 -122 171 -69 26 23
28 29 28 101 0 72 -2 78 -28 101 -36 31 -94 32 -130 3z m109 -30 c14 -15 19
-36 19 -76 0 -45 -4 -58 -24 -74 -31 -26 -57 -24 -86 6 -52 51 -21 165 44 165
16 0 36 -9 47 -21z"/>
<path d="M2960 284 c0 -114 2 -125 18 -122 14 3 18 17 22 80 4 63 9 81 29 102
14 14 30 26 38 26 7 0 13 9 13 20 0 28 -26 25 -56 -5 -14 -14 -27 -25 -29 -25
-3 0 -5 11 -5 25 0 16 -6 25 -15 25 -13 0 -15 -21 -15 -126z"/>
</g>
</svg>
