<?xml version="1.0" standalone="no"?>
<!DOCTYPE svg PUBLIC "-//W3C//DTD SVG 20010904//EN"
 "http://www.w3.org/TR/2001/REC-SVG-20010904/DTD/svg10.dtd">
<svg version="1.0" xmlns="http://www.w3.org/2000/svg"
 width="367.000000pt" height="350.000000pt" viewBox="0 0 367.000000 350.000000"
 preserveAspectRatio="xMidYMid meet">

<g transform="translate(0.000000,350.000000) scale(0.100000,-0.100000)"
fill="#000000" stroke="none">
<path d="M1725 3290 c-329 -71 -538 -389 -470 -715 45 -212 218 -396 430 -456
65 -18 245 -18 310 0 212 60 385 244 430 456 62 298 -101 585 -393 692 -74 28
-233 40 -307 23z m263 -265 c235 -107 284 -411 96 -586 -50 -45 -77 -62 -138
-82 -224 -76 -466 105 -466 348 0 56 20 129 46 172 51 82 143 150 231 173 62
15 167 4 231 -25z"/>
<path d="M1305 1850 c-213 -44 -392 -207 -458 -415 -20 -62 -22 -92 -22 -267
l0 -198 33 -32 c28 -28 39 -33 82 -33 43 0 54 5 82 33 l33 32 6 188 c3 103 10
201 16 218 28 81 118 179 201 217 46 22 55 22 562 22 507 0 516 0 562 -22 83
-38 166 -127 198 -213 7 -19 18 -119 24 -222 11 -175 13 -189 35 -212 30 -32
82 -50 121 -41 36 8 77 55 85 98 12 60 -13 367 -34 437 -55 176 -191 316 -379
389 l-67 26 -520 2 c-286 1 -538 -2 -560 -7z"/>
<path d="M165 683 c-93 -26 -127 -156 -55 -216 16 -14 61 -37 99 -52 96 -36
130 -82 101 -136 -14 -25 -62 -49 -98 -49 -15 0 -52 12 -81 26 -50 25 -53 26
-66 8 -12 -17 -12 -21 3 -33 63 -50 169 -65 231 -33 51 25 73 61 74 120 1 67
-21 98 -91 129 -133 57 -141 62 -148 88 -22 86 67 127 177 81 11 -5 19 1 27
18 10 22 9 27 -8 36 -23 13 -136 21 -165 13z"/>
<path d="M3154 676 c-9 -23 -1 -48 19 -60 25 -16 52 4 52 40 0 25 -4 29 -33
32 -22 2 -34 -2 -38 -12z"/>
<path d="M524 546 c-89 -39 -119 -214 -53 -308 52 -73 173 -76 235 -7 59 66
59 212 0 278 -43 48 -120 64 -182 37z m115 -51 c75 -38 75 -212 0 -250 -42
-22 -75 -18 -111 14 -28 24 -32 36 -36 90 -9 123 60 192 147 146z"/>
<path d="M1822 545 c-45 -20 -68 -73 -52 -121 10 -28 22 -40 58 -56 104 -45
117 -53 120 -75 4 -30 -31 -63 -68 -63 -17 0 -47 7 -67 15 -27 11 -39 12 -49
4 -23 -19 -16 -29 29 -49 50 -23 95 -25 141 -6 44 18 66 52 66 99 0 30 -7 45
-30 67 -17 16 -43 31 -58 35 -43 9 -92 43 -92 63 0 37 34 54 97 50 46 -2 58 0
61 13 7 35 -94 51 -156 24z"/>
<path d="M2575 542 c-49 -24 -73 -49 -91 -99 -40 -113 9 -241 99 -258 47 -9
78 -1 115 30 l30 25 6 -25 c5 -19 13 -25 32 -25 20 0 25 4 20 16 -3 9 -6 83
-6 165 l0 150 -37 16 c-59 25 -122 27 -168 5z m131 -42 l27 -11 -7 -85 c-9
-118 -42 -174 -104 -174 -64 0 -96 53 -90 148 4 59 7 67 41 98 39 36 80 44
133 24z"/>
<path d="M3035 540 c-22 -11 -48 -32 -57 -47 l-17 -28 -7 43 c-6 36 -10 42
-32 42 -24 0 -24 -2 -18 -46 3 -26 6 -107 6 -180 l0 -134 25 0 c25 0 25 1 25
78 0 133 35 211 103 227 22 6 27 13 27 36 0 34 -3 35 -55 9z"/>
<path d="M3405 542 c-66 -42 -90 -100 -82 -200 5 -71 23 -103 78 -140 28 -20
43 -23 87 -20 96 8 145 71 145 187 0 118 -49 181 -147 188 -38 3 -59 -1 -81
-15z m124 -48 c74 -52 65 -220 -14 -256 -41 -19 -95 0 -119 42 -40 68 -18 198
37 220 35 14 70 11 96 -6z"/>
<path d="M814 488 c13 -35 45 -120 71 -189 l47 -127 -26 -71 c-26 -73 -27 -71
15 -75 6 -1 50 107 98 239 116 316 108 285 74 285 -27 0 -30 -5 -78 -141 -27
-77 -52 -142 -55 -144 -4 -2 -29 60 -57 138 -49 139 -51 142 -81 145 l-32 3
24 -63z"/>
<path d="M1362 408 c3 -110 7 -150 20 -174 34 -63 125 -70 183 -14 38 37 43
37 47 3 2 -20 9 -29 26 -31 l22 -3 0 180 0 181 -30 0 -30 0 0 -102 c0 -113
-18 -172 -61 -202 -29 -20 -69 -21 -95 -2 -17 13 -19 29 -22 160 l-3 146 -31
0 -30 0 4 -142z"/>
<path d="M2082 408 c3 -110 7 -150 20 -174 34 -63 125 -70 183 -14 38 37 43
37 47 3 2 -20 9 -29 26 -31 l22 -3 0 180 0 181 -30 0 -30 0 0 -102 c0 -113
-18 -172 -61 -202 -29 -20 -69 -21 -95 -2 -17 13 -19 29 -22 160 l-3 146 -31
0 -30 0 4 -142z"/>
<path d="M3160 370 l0 -180 30 0 30 0 0 180 0 180 -30 0 -30 0 0 -180z"/>
</g>
</svg>
